<?xml version="1.0" encoding="UTF-8" standalone="no"?>
<!-- Created with Inkscape (http://www.inkscape.org/) -->

<svg
   xmlns:dc="http://purl.org/dc/elements/1.1/"
   xmlns:cc="http://creativecommons.org/ns#"
   xmlns:rdf="http://www.w3.org/1999/02/22-rdf-syntax-ns#"
   xmlns:svg="http://www.w3.org/2000/svg"
   xmlns="http://www.w3.org/2000/svg"
   xmlns:xlink="http://www.w3.org/1999/xlink"
   xmlns:sodipodi="http://sodipodi.sourceforge.net/DTD/sodipodi-0.dtd"
   xmlns:inkscape="http://www.inkscape.org/namespaces/inkscape"
   width="40"
   height="40"
   id="svg2985"
   version="1.1"
   inkscape:version="0.48.3.1 r9886"
   sodipodi:docname="icon_paste.svg"
   inkscape:export-filename="/home/raster/C/terminology/data/themes/images/icon_paste.png"
   inkscape:export-xdpi="180"
   inkscape:export-ydpi="180">
  <defs
     id="defs2987">
    <linearGradient
       id="linearGradient11963">
      <stop
         style="stop-color:#ffffff;stop-opacity:1;"
         offset="0"
         id="stop11965" />
      <stop
         style="stop-color:#a0a0a0;stop-opacity:1;"
         offset="1"
         id="stop11967" />
    </linearGradient>
    <linearGradient
       id="linearGradient8177">
      <stop
         style="stop-color:#ffffff;stop-opacity:1;"
         offset="0"
         id="stop8179" />
      <stop
         style="stop-color:#ffffff;stop-opacity:0;"
         offset="1"
         id="stop8181" />
    </linearGradient>
    <linearGradient
       inkscape:collect="always"
       id="linearGradient8117">
      <stop
         style="stop-color:#000000;stop-opacity:1;"
         offset="0"
         id="stop8119" />
      <stop
         style="stop-color:#000000;stop-opacity:0;"
         offset="1"
         id="stop8121" />
    </linearGradient>
    <linearGradient
       id="linearGradient4566">
      <stop
         style="stop-color:#ffffff;stop-opacity:1;"
         offset="0"
         id="stop4568" />
      <stop
         style="stop-color:#ffffff;stop-opacity:0;"
         offset="1"
         id="stop4570" />
    </linearGradient>
    <linearGradient
       id="linearGradient3800">
      <stop
         style="stop-color:#ffffff;stop-opacity:1;"
         offset="0"
         id="stop3802" />
      <stop
         id="stop3808"
         offset="0.1"
         style="stop-color:#ffffff;stop-opacity:0.75294119;" />
      <stop
         style="stop-color:#ffffff;stop-opacity:0.49803922;"
         offset="0.2"
         id="stop3810" />
      <stop
         id="stop3812"
         offset="0.44999999"
         style="stop-color:#ffffff;stop-opacity:0.24705882;" />
      <stop
         style="stop-color:#ffffff;stop-opacity:0;"
         offset="1"
         id="stop3804" />
    </linearGradient>
    <linearGradient
       id="linearGradient3765">
      <stop
         style="stop-color:#000000;stop-opacity:1;"
         offset="0"
         id="stop3767" />
      <stop
         style="stop-color:#000000;stop-opacity:0;"
         offset="1"
         id="stop3769" />
    </linearGradient>
    <radialGradient
       inkscape:collect="always"
       xlink:href="#linearGradient3765"
       id="radialGradient3784"
       cx="2"
       cy="38"
       fx="2"
       fy="38"
       r="18"
       gradientUnits="userSpaceOnUse"
       gradientTransform="matrix(0,2,-2,0,77,-8)" />
    <radialGradient
       inkscape:collect="always"
       xlink:href="#linearGradient4566"
       id="radialGradient4572"
       cx="2.0000002"
       cy="-15.5"
       fx="2.0000002"
       fy="-15.5"
       r="18"
       gradientTransform="matrix(0,0.05555555,-2,-1.9264137e-8,-29,1.8888886)"
       gradientUnits="userSpaceOnUse" />
    <radialGradient
       inkscape:collect="always"
       xlink:href="#linearGradient4566-4"
       id="radialGradient4572-5"
       cx="2.0000002"
       cy="-15.5"
       fx="2.0000002"
       fy="-15.5"
       r="18"
       gradientTransform="matrix(0,0.05555555,-2,-1.9264137e-8,-29,1.8888886)"
       gradientUnits="userSpaceOnUse" />
    <linearGradient
       id="linearGradient4566-4">
      <stop
         style="stop-color:#ffffff;stop-opacity:1;"
         offset="0"
         id="stop4568-0" />
      <stop
         style="stop-color:#ffffff;stop-opacity:0;"
         offset="1"
         id="stop4570-3" />
    </linearGradient>
    <radialGradient
       r="18"
       fy="-15.5"
       fx="2.0000002"
       cy="-15.5"
       cx="2.0000002"
       gradientTransform="matrix(0,0.05555555,-2,-1.9264137e-8,-37,1.888889)"
       gradientUnits="userSpaceOnUse"
       id="radialGradient4589"
       xlink:href="#linearGradient4566-4"
       inkscape:collect="always" />
    <linearGradient
       inkscape:collect="always"
       xlink:href="#linearGradient8117"
       id="linearGradient8123"
       x1="7"
       y1="7"
       x2="11"
       y2="11"
       gradientUnits="userSpaceOnUse" />
    <filter
       inkscape:collect="always"
       id="filter8161"
       x="-0.12"
       width="1.24"
       y="-0.12"
       height="1.24">
      <feGaussianBlur
         inkscape:collect="always"
         stdDeviation="0.35"
         id="feGaussianBlur8163" />
    </filter>
    <mask
       maskUnits="userSpaceOnUse"
       id="mask8173">
      <path
         inkscape:connector-curvature="0"
         id="path8175"
         d="m 4,10 6,-6 8,0 0,22 -14,0 z"
         style="fill:#ffffff;fill-opacity:1;stroke:none" />
    </mask>
    <linearGradient
       gradientTransform="translate(18,9.9999999)"
       inkscape:collect="always"
       xlink:href="#linearGradient8177-0"
       id="linearGradient8183-0"
       x1="7"
       y1="-1"
       x2="9"
       y2="1"
       gradientUnits="userSpaceOnUse" />
    <linearGradient
       id="linearGradient8177-0">
      <stop
         style="stop-color:#ffffff;stop-opacity:1;"
         offset="0"
         id="stop8179-8" />
      <stop
         style="stop-color:#ffffff;stop-opacity:0;"
         offset="1"
         id="stop8181-4" />
    </linearGradient>
    <linearGradient
       inkscape:collect="always"
       xlink:href="#linearGradient8117-2"
       id="linearGradient8123-4"
       x1="7"
       y1="7"
       x2="11"
       y2="11"
       gradientUnits="userSpaceOnUse" />
    <linearGradient
       inkscape:collect="always"
       id="linearGradient8117-2">
      <stop
         style="stop-color:#000000;stop-opacity:1;"
         offset="0"
         id="stop8119-6" />
      <stop
         style="stop-color:#000000;stop-opacity:0;"
         offset="1"
         id="stop8121-6" />
    </linearGradient>
    <mask
       maskUnits="userSpaceOnUse"
       id="mask8173-4">
      <path
         inkscape:connector-curvature="0"
         id="path8175-8"
         d="m 4,10 6,-6 8,0 0,22 -14,0 z"
         style="fill:#ffffff;fill-opacity:1;stroke:none" />
    </mask>
    <filter
       color-interpolation-filters="sRGB"
       inkscape:collect="always"
       id="filter8161-8"
       x="-0.12"
       width="1.24"
       y="-0.12"
       height="1.24">
      <feGaussianBlur
         inkscape:collect="always"
         stdDeviation="0.35"
         id="feGaussianBlur8163-6" />
    </filter>
    <filter
       inkscape:collect="always"
       id="filter11951">
      <feGaussianBlur
         inkscape:collect="always"
         stdDeviation="1.1588731"
         id="feGaussianBlur11953" />
    </filter>
    <radialGradient
       inkscape:collect="always"
       xlink:href="#linearGradient11963"
       id="radialGradient11969"
       cx="23"
       cy="5.3441091"
       fx="23"
       fy="5.3441091"
       r="16.941942"
       gradientTransform="matrix(-1.062452,1.6527031,-0.80278736,-0.51607759,51.726579,-29.254196)"
       gradientUnits="userSpaceOnUse" />
  </defs>
  <sodipodi:namedview
     id="base"
     pagecolor="#505050"
     bordercolor="#666666"
     borderopacity="1.0"
     inkscape:pageopacity="1"
     inkscape:pageshadow="2"
     inkscape:zoom="30.55"
     inkscape:cx="20"
     inkscape:cy="20"
     inkscape:current-layer="layer1"
     showgrid="true"
     inkscape:grid-bbox="true"
     inkscape:document-units="px"
     units="cm"
     objecttolerance="1"
     guidetolerance="50"
     inkscape:window-width="2560"
     inkscape:window-height="1377"
     inkscape:window-x="0"
     inkscape:window-y="0"
     inkscape:window-maximized="1">
    <inkscape:grid
       type="xygrid"
       id="grid2993"
       empspacing="5"
       visible="true"
       enabled="true"
       snapvisiblegridlinesonly="true"
       dotted="false" />
  </sodipodi:namedview>
  <metadata
     id="metadata2990">
    <rdf:RDF>
      <cc:Work
         rdf:about="">
        <dc:format>image/svg+xml</dc:format>
        <dc:type
           rdf:resource="http://purl.org/dc/dcmitype/StillImage" />
        <dc:title></dc:title>
      </cc:Work>
    </rdf:RDF>
  </metadata>
  <g
     id="layer1"
     inkscape:label="Layer 1"
     inkscape:groupmode="layer"
     transform="translate(0,8)">
    <path
       sodipodi:nodetypes="cssscassssasssaac"
       inkscape:connector-curvature="0"
       id="path11941"
       d="m 32,-3 c 0,0 -5,4 -6,5 -0.971825,0.9718253 0,3 1,4 1,1 2.945907,3.054093 4,2 1,-1 6,-5 6,-5 0,0 -1.177114,5.811805 -3,8 -1.244049,1.493358 -4,3 -5,3 -1,0 -3,0 -4,0 -1,0 -2,1 -3,2 C 21,17 10,27 9,28 7.8214887,29.178511 5.1785113,29.178511 4,28 2.8214887,26.821489 2.8214887,24.178511 4,23 6,21 16,11 17,10 c 1,-1 2,-2 2,-3 0,-1 0.07221,-4.1971348 1,-6 0.862824,-1.6766306 2.257916,-3.2784052 4,-4 2.463679,-1.0204892 8,0 8,0 z"
       style="fill:#000000;fill-opacity:1;stroke:none;opacity:0.50000000000000000;filter:url(#filter11951)" />
    <path
       style="fill:url(#radialGradient11969);fill-opacity:1;stroke:none"
       d="m 32,4 c 0,0 -5,4 -6,5 -0.971825,0.9718253 0,3 1,4 1,1 2.945907,3.054093 4,2 1,-1 6,-5 6,-5 0,0 -1.177114,5.811805 -3,8 -1.244049,1.493358 -4,3 -5,3 -1,0 -3,0 -4,0 -1,0 -2,1 -3,2 C 21,24 10,34 9,35 7.8214887,36.178511 5.1785113,36.178511 4,35 2.8214887,33.821489 2.8214887,31.178511 4,30 6,28 16,18 17,17 c 1,-1 2,-2 2,-3 0,-1 0.07221,-4.1971348 1,-6 0.862824,-1.6766306 2.257916,-3.2784052 4,-4 2.463679,-1.0204892 8,0 8,0 z"
       id="path11939"
       inkscape:connector-curvature="0"
       transform="translate(0,-8)"
       sodipodi:nodetypes="cssscassssasssaac" />
  </g>
</svg>
